<svg width="21" height="21" viewBox="0 0 21 21" fill="none" xmlns="http://www.w3.org/2000/svg">
<g clip-path="url(#clip0_3_2287)">
<path d="M18.2 4.11251C17.2818 3.19881 16.0391 2.68588 14.7438 2.68588C13.4484 2.68588 12.2057 3.19881 11.2875 4.11251L10.5 4.90001L9.71252 4.11251C8.77628 3.29955 7.56667 2.87177 6.32751 2.91538C5.08834 2.95899 3.91179 3.47076 3.03503 4.34752C2.15827 5.22429 1.6465 6.40084 1.60289 7.64C1.55928 8.87916 1.98706 10.0888 2.80002 11.025L3.58752 11.8125L10.5 18.375L17.4125 11.8125L18.2 11.025C19.1137 10.1068 19.6266 8.86412 19.6266 7.56876C19.6266 6.27339 19.1137 5.03073 18.2 4.11251Z" stroke="currentColor" stroke-width="1.575" stroke-linecap="round" stroke-linejoin="round"/>
</g>
<defs>
<clipPath id="clip0_3_2287">
<rect width="21" height="21" fill="white"/>
</clipPath>
</defs>
</svg>
